<?xml version="1.0" encoding="utf-8"?>
<!-- Generator: Adobe Illustrator 19.2.1, SVG Export Plug-In . SVG Version: 6.00 Build 0)  -->
<svg version="1.1" id="Layer_1" xmlns="http://www.w3.org/2000/svg" xmlns:xlink="http://www.w3.org/1999/xlink" x="0px" y="0px"
	 viewBox="0 0 24.4 30.1" style="enable-background:new 0 0 24.4 30.1;" xml:space="preserve">
<style type="text/css">
	.st0{fill:#FFC11C;}
	.st1{fill:#E5A413;}
</style>
<g transform="translate(0 0)">
	<path class="st0" d="M24.2,3.7c-0.3-0.3-0.8-0.3-1.1,0l-4.6,4.6l-1-1c-0.5-0.5-1.2-0.5-1.7,0c0,0,0,0,0,0l-14,14
		c-0.5,0.5-0.5,1.2,0,1.7c0,0,0,0,0,0l3,3c0.5,0.5,1.2,0.5,1.7,0c0,0,0,0,0,0l14-14c0.5-0.5,0.5-1.2,0-1.7c0,0,0,0,0,0l-1-1l4.6-4.6
		C24.5,4.4,24.5,4,24.2,3.7C24.2,3.7,24.2,3.7,24.2,3.7z"/>
	<g transform="translate(0.902 0)">
		<path class="st1" d="M9.3,1.9c0,0.2-0.2,0.4-0.4,0.4H7c-0.2,0-0.4-0.2-0.4-0.4c0,0,0,0,0,0V0.4C6.6,0.2,6.8,0,7,0c0,0,0,0,0,0h1.9
			c0.2,0,0.4,0.2,0.4,0.4c0,0,0,0,0,0V1.9z"/>
		<path class="st1" d="M10.6,1.4c0,0.1-0.1,0.1-0.1,0.1l0,0h-5c-0.1,0-0.1-0.1-0.1-0.1l0,0V0.9c0-0.1,0.1-0.1,0.1-0.1l0,0h5
			c0.1,0,0.1,0.1,0.1,0.1l0,0V1.4z"/>
		<path class="st1" d="M4,1.9c0,0.2-0.2,0.4-0.4,0.4H1.7c-0.2,0-0.4-0.2-0.4-0.4c0,0,0,0,0,0V0.4C1.3,0.2,1.5,0,1.7,0c0,0,0,0,0,0
			h1.9C3.8,0,4,0.2,4,0.4c0,0,0,0,0,0V1.9z"/>
		<path class="st1" d="M5.3,1.4c0,0.1-0.1,0.1-0.1,0.1l0,0h-5C0.1,1.5,0,1.5,0,1.4l0,0V0.9c0-0.1,0.1-0.1,0.1-0.1l0,0h5
			c0.1,0,0.1,0.1,0.1,0.1l0,0V1.4z"/>
	</g>
	<g transform="translate(0 1.447)">
		<path class="st1" d="M1,19.6l1.2-1.2V1.1C2.2,0.5,1.7,0,1.1,0S0,0.5,0,1.1v27.5h2.2V23L1,21.7C0.4,21.2,0.4,20.2,1,19.6z"/>
		<path class="st1" d="M7.4,1.1C7.4,0.5,6.9,0,6.3,0S5.2,0.5,5.2,1.1v14.3l2.2-2.2V1.1z"/>
		<path class="st1" d="M5.2,25.8v2.8h2.2V25l-0.5,0.5C6.4,26,5.8,26.1,5.2,25.8z"/>
		<path class="st1" d="M10.4,28.6h2.2v-8.8L10.4,22V28.6z"/>
		<path class="st1" d="M12.6,1.1c0-0.6-0.5-1.1-1.1-1.1s-1.1,0.5-1.1,1.1v9.1L12.6,8L12.6,1.1z"/>
	</g>
	<ellipse class="st0" cx="17.8" cy="22.8" rx="2.9" ry="2.9"/>
</g>
</svg>
