<?xml version="1.0" encoding="utf-8"?>
<!-- Generator: Adobe Illustrator 19.2.1, SVG Export Plug-In . SVG Version: 6.00 Build 0)  -->
<svg version="1.1" id="Layer_1" xmlns="http://www.w3.org/2000/svg" xmlns:xlink="http://www.w3.org/1999/xlink" x="0px" y="0px"
	 viewBox="0 0 30 30" style="enable-background:new 0 0 30 30;" xml:space="preserve">
<style type="text/css">
	.st0{fill:#E5A413;}
	.st1{fill:#FFC11C;}
</style>
<g transform="translate(4.762 0.09)">
	<path class="st0" d="M11,6.5c-0.4,2.3-2.2,4.1-4.5,4.5C6.1,7.7,3.4,5,0,4.5C0.4,2.2,2.2,0.4,4.5,0C5,3.4,7.6,6.1,11,6.5z"/>
	<path class="st0" d="M11.1,5.3C8.4,4.9,6.2,2.8,5.8,0C8.6-0.3,11.2,2.6,11.1,5.3z"/>
	<path class="st0" d="M0,5.8c2.7,0.3,5.2,2.9,5.3,5.3C2.4,11,0,8.7,0,5.8z"/>
</g>
<path class="st1" d="M8.2,12.8l2.3,0.3c0,0.2,0,0.3,0,0.5c-0.1,3.2,2.3,5.8,5.5,6c0.7,0,1.5-0.1,2.2-0.3c2.7-1,5.1-2.8,6.9-5.1
	c1.2-1.4,2-3,2.5-4.8c0.7-3-1.1-6.1-4.2-6.8c-1-0.2-2-0.2-2.9,0.1c-1,0.3-2,0.7-2.9,1.1l-0.9-2.1c0.5-0.2,1-0.5,1.5-0.8
	c3.8-1.9,8.4-0.7,10.7,2.9c1.2,1.9,1.6,4.3,0.9,6.5c-1.2,4.9-6.6,10.2-11.5,11.4c-1.1,0.2-2.2,0.3-3.4,0.2c-1.7-0.1-3.3,0.1-5,0.5
	c-0.6,0.2-1.1,0.5-1.6,0.8c-0.4,0.3-0.9,0.6-0.5,1.3c0.1,0.2-0.1,0.6-0.3,0.8c-1.4,1.5-2.9,2.9-4.4,4.4c-0.4,0.4-1,0.5-1.5,0.2
	c-0.4-0.2-0.8-0.6-1.2-1c-0.5-0.5-0.6-1.3-0.1-1.9c0.1-0.1,0.1-0.1,0.2-0.2c1.4-1.4,2.8-2.8,4.2-4.2c0.3-0.3,0.7-0.4,1.2-0.3
	c0.2,0,0.4,0,0.6-0.1c0.8-0.7,1.3-1.7,1.4-2.8c0.2-1.7,0.2-3.4,0.3-5.1C8.2,13.8,8.2,13.3,8.2,12.8z M10.8,20.1L10,19l-0.1,0.1
	c-0.1,0.4-0.1,0.8-0.2,1.2L10.8,20.1z"/>
</svg>
