<?xml version="1.0" encoding="utf-8"?>
<!-- Generator: Adobe Illustrator 19.2.1, SVG Export Plug-In . SVG Version: 6.00 Build 0)  -->
<svg version="1.1" id="Layer_1" xmlns="http://www.w3.org/2000/svg" xmlns:xlink="http://www.w3.org/1999/xlink" x="0px" y="0px"
	 viewBox="0 0 26.4 30.1" style="enable-background:new 0 0 26.4 30.1;" xml:space="preserve">
<style type="text/css">
	.st0{fill:#FFC11C;}
	.st1{fill:#E5A413;}
	.st2{fill:#F1F1F3;}
</style>
<g transform="translate(0)">
	<path class="st0" d="M3.1,11.6C3.1,5.2,8.3,0,14.7,0c6.4,0,11.6,5.2,11.6,11.6c0,6.4-5.2,11.6-11.6,11.6c0,0-0.1,0-0.1,0
		C8.2,23.2,3.1,18,3.1,11.6z M4.7,14c0.2,0,0.3-0.1,0.5,0c0.7,0.4,1.4,0.7,2.1,1c0.2,0.1,0.3,0.2,0.3,0.4c0.1,0.5,0.2,1,0.3,1.4
		c0.3,0.6,0.1,1.4-0.4,1.8c-0.2,0.1-0.1,0.2,0,0.4c1.1,1,2.3,1.8,3.7,2.3c0.7,0.2,0.7,0.2,0.8-0.5c0-0.2,0-0.4,0.3-0.5
		c0.7-0.3,1.4-0.7,2.1-1c0.1-0.1,0.3-0.1,0.4,0c0.5,0.3,1.1,0.5,1.6,0.8c0.5,0.1,0.9,0.6,0.9,1.2c0,0.3,0.1,0.3,0.4,0.2
		c1.3-0.4,2.6-1.1,3.6-2c0.2-0.2,0.6-0.4,0.6-0.6c0-0.2-0.3-0.4-0.5-0.7c0,0-0.1-0.1-0.1-0.1c-0.1-0.1-0.1-0.2-0.1-0.4
		c0.2-0.8,0.4-1.5,0.5-2.3c0-0.1,0.1-0.3,0.2-0.3c0.7-0.3,1.4-0.7,2.1-1c0.1,0,0.2-0.1,0.3,0c0.2,0.1,0.2,0,0.3-0.2
		c0.3-1.4,0.3-2.8,0-4.2c0-0.2-0.1-0.2-0.3-0.2c-0.4,0-0.8,0-1.3,0c-0.2,0-0.3-0.1-0.4-0.2c-0.5-0.6-1-1.2-1.5-1.9
		c-0.1-0.1-0.1-0.2-0.1-0.3c0.2-0.8,0.4-1.7,0.6-2.5c0-0.2,0-0.2-0.1-0.3c-1.1-1-2.3-1.8-3.7-2.3c-0.1-0.1-0.3,0-0.4,0.1
		c-0.5,0.6-0.9,1.2-1.4,1.8C16.2,3.9,16,4,15.8,4c-0.7,0-1.5,0-2.2,0c-0.2,0-0.4-0.1-0.5-0.2c-0.5-0.6-1-1.2-1.4-1.8
		c-0.1-0.1-0.2-0.2-0.3-0.1C9.9,2.4,8.6,3.2,7.6,4.2c0,0-0.1,0.1-0.1,0.2C7.7,5.3,7.9,6.1,8.1,7c0,0.1,0,0.3-0.1,0.4
		C7.5,8,7,8.6,6.5,9.2C6.5,9.3,6.3,9.4,6.2,9.4c-0.4,0-0.8,0-1.3,0c-0.2,0-0.3,0-0.3,0.2C4.3,11,4.3,12.6,4.7,14z"/>
	<path class="st1" d="M8.1,22.6c-0.8,0.9-1.5,1.7-2.3,2.6c-1.3,1.5-2.7,2.9-4,4.4c-0.1,0.1-0.1,0.1-0.2,0.2
		c-0.3,0.4-0.8,0.4-1.1,0.2c0,0,0,0-0.1,0c-0.3-0.3-0.4-0.8-0.1-1.1c0,0,0,0,0.1-0.1c0.7-0.8,1.4-1.6,2.1-2.4c1.3-1.5,2.7-3,4-4.4
		c0.2-0.2,0.2-0.2,0.4-0.1C7.4,22.1,7.7,22.3,8.1,22.6z"/>
	<path class="st1" d="M12.7,24.3l-2.3,2.6c-0.7,0.8-1.4,1.6-2.2,2.4c-0.2,0.3-0.7,0.4-1,0.2c-0.3-0.2-0.5-0.5-0.4-0.9
		c0-0.2,0.1-0.3,0.3-0.5c1.3-1.4,2.5-2.8,3.8-4.2c0.1-0.1,0.1-0.2,0.3-0.1C11.6,24,12.1,24.1,12.7,24.3z"/>
	<path class="st1" d="M3.5,17.7c0.3,0.4,0.5,0.8,0.8,1.2c0.1,0.2,0.1,0.3,0,0.4c-0.9,1-1.8,2-2.8,3.1c-0.3,0.4-0.8,0.4-1.1,0.2
		c0,0,0,0-0.1-0.1c-0.3-0.3-0.3-0.8,0-1.1c0,0,0,0,0,0C1.3,20.1,2.4,18.9,3.5,17.7z"/>
	<path class="st2" d="M4.7,14c-0.4-1.5-0.4-3-0.1-4.5c0-0.2,0.1-0.2,0.3-0.2c0.4,0,0.8,0,1.3,0c0.1,0,0.3-0.1,0.4-0.2
		C7,8.6,7.5,8,8,7.3C8.1,7.2,8.1,7.1,8.1,7C7.9,6.1,7.8,5.3,7.5,4.4c0-0.1,0-0.1,0.1-0.2c1.1-1.1,2.4-1.9,3.8-2.4
		c0.2-0.1,0.2,0,0.3,0.1c0.5,0.6,1,1.2,1.4,1.8C13.2,4,13.4,4,13.6,4c0.7,0,1.5,0,2.2,0C16,4,16.2,4,16.3,3.8
		c0.5-0.6,0.9-1.2,1.4-1.8c0.1-0.1,0.2-0.2,0.4-0.1c1.4,0.5,2.7,1.3,3.7,2.3C22,4.3,22,4.4,21.9,4.5c-0.2,0.8-0.4,1.7-0.6,2.5
		c0,0.1,0,0.2,0.1,0.3c0.5,0.6,1,1.2,1.5,1.9c0.1,0.1,0.2,0.2,0.4,0.2c0.4,0,0.8,0,1.3,0c0.2,0,0.2,0.1,0.3,0.2
		c0.3,1.4,0.3,2.8,0,4.2c0,0.2-0.1,0.3-0.3,0.2c-0.1-0.1-0.2,0-0.3,0c-0.7,0.3-1.4,0.7-2.1,1c-0.1,0.1-0.2,0.2-0.2,0.3
		c-0.2,0.8-0.3,1.5-0.5,2.3c0,0.1,0,0.3,0.1,0.4c0,0,0.1,0.1,0.1,0.1c0.2,0.2,0.5,0.5,0.5,0.7c0,0.3-0.4,0.4-0.6,0.6
		c-1.1,0.9-2.3,1.6-3.6,2c-0.2,0.1-0.4,0-0.4-0.2c0-0.6-0.4-1-0.9-1.2c-0.5-0.2-1.1-0.5-1.6-0.8c-0.1-0.1-0.3-0.1-0.4,0
		c-0.7,0.4-1.4,0.7-2.1,1c-0.3,0.1-0.2,0.3-0.3,0.5c-0.2,0.7-0.2,0.7-0.8,0.5c-1.4-0.5-2.7-1.3-3.7-2.3c-0.2-0.1-0.2-0.2,0-0.4
		c0.5-0.4,0.7-1.2,0.4-1.8c-0.1-0.5-0.3-1-0.3-1.4c0-0.2-0.1-0.3-0.3-0.4c-0.7-0.3-1.4-0.7-2.1-1C5,13.9,4.9,14,4.7,14z M14.7,14.7
		C14.7,14.7,14.7,14.7,14.7,14.7c0.4,0,0.8,0,1.2,0c0.2,0,0.3-0.1,0.4-0.2c0.5-0.6,0.9-1.2,1.4-1.8c0.1-0.1,0.2-0.3,0.1-0.4
		c-0.2-0.7-0.4-1.5-0.5-2.2c0-0.2-0.1-0.3-0.3-0.4c-0.7-0.3-1.4-0.7-2.1-1c-0.1-0.1-0.3-0.1-0.4,0c-0.7,0.3-1.4,0.7-2.1,1
		c-0.2,0.1-0.3,0.2-0.3,0.4c-0.1,0.6-0.3,1.3-0.4,1.9c-0.1,0.4,0,0.8,0.2,1c0.2,0.2,0.4,0.4,0.5,0.7c0.3,0.3,0.5,0.8,0.9,1
		C13.8,14.7,14.2,14.8,14.7,14.7L14.7,14.7z"/>
	<path class="st1" d="M14.7,14.7c-0.4,0.1-0.9,0.1-1.4,0c-0.4-0.2-0.6-0.7-0.9-1c-0.2-0.2-0.3-0.5-0.5-0.7c-0.3-0.3-0.4-0.7-0.2-1
		c0.2-0.6,0.3-1.3,0.4-1.9c0-0.2,0.1-0.3,0.3-0.4c0.7-0.3,1.4-0.7,2.1-1c0.1-0.1,0.3-0.1,0.4,0c0.7,0.3,1.4,0.7,2.1,1
		c0.2,0.1,0.3,0.2,0.3,0.4c0.2,0.7,0.3,1.5,0.5,2.2c0,0.2,0,0.3-0.1,0.4c-0.5,0.6-1,1.2-1.4,1.8c-0.1,0.1-0.3,0.2-0.4,0.2
		C15.5,14.7,15.1,14.7,14.7,14.7C14.7,14.7,14.7,14.7,14.7,14.7z"/>
</g>
</svg>
